<svg xmlns="http://www.w3.org/2000/svg" width="256" height="256"><path fill="#1976D2" fill-opacity=".016" fill-rule="evenodd" d="M0 128.004v128.004l128.25-.254 128.25-.254.254-127.75L257.008 0H0zm.485.496c0 70.4.119 99.053.265 63.672s.146-92.98 0-128S.485 58.1.485 128.5"/><path fill="#1976D2" fill-opacity=".155" fill-rule="evenodd" d="M41.2 30.2c-.751.751-1.2 4.481-1.2 9.965C40 50.434 40.496 51 49.5 51c3.097 0 6.54.486 7.65 1.08C60.333 53.784 62 59.184 62 67.79v7.855l-6.75 2.766C45.395 82.448 33 90.056 33 92.068 33 93.537 41.027 98 43.67 98c.44 0 6.094-5.28 12.565-11.734L68 74.531v-8.805c0-9.317-2.001-15.463-5.743-17.642-1.372-.799-.681-1.03 3.155-1.054 6.2-.038 12.443 3.429 15.118 8.397C81.589 57.392 82.703 59 83.006 59c.304 0 3.451-2.925 6.994-6.5s5.803-6.5 5.022-6.5-3.468 2.182-5.972 4.848l-4.551 4.848-2.638-3.705C77.424 45.76 72.32 44 58.684 44H47v-9h60.626l2.874-3 2.874-3H77.887c-26.268 0-35.799.312-36.687 1.2m163.596 13.561-6.705 6.739 6.52-.338c4.11-.213 6.701-.812 7.011-1.619.27-.705.354-3.585.185-6.401l-.307-5.119zM187.75 60.734c-2.211 2.312-2.75 3.807-2.75 7.63 0 3.193-.36 4.532-1.096 4.077-.603-.373-.904-1.987-.669-3.586.264-1.8.014-2.773-.654-2.554-.595.196-1.228 1.359-1.408 2.585s-.855 2.03-1.5 1.787-4.168 2.49-7.829 6.073l-6.657 6.515 3.875 7.357c2.131 4.046 4.596 9.838 5.477 12.87 1.926 6.622 1.462 6.554 17.269 2.552C208.159 101.901 224 95.315 224 92.656c0-1.751-15.487-10.889-25.149-14.84l-7.778-3.18-.287-8.389-.286-8.388zm-38.303 38.32L136.529 112l5.485-.008c5.252-.008 19.404-1.344 27.16-2.564l3.674-.578-1.537-5.175c-1.638-5.519-6.71-16.186-8.106-17.049-.463-.285-6.654 5.307-13.758 12.428m-126.708.945c-7.452 8.234-11.852 17.363-12.473 25.878l-.483 6.623 15.608-15.488C33.976 108.494 41 101.214 41 100.835s-2.587-1.937-5.75-3.464-6.032-2.928-6.378-3.116c-.345-.187-3.105 2.398-6.133 5.744M218.5 98.033c-8.338 4.026-22.595 8.896-33.173 11.332-3.395.782-6.599 1.685-7.119 2.006-.552.342-.741 5.275-.454 11.857.27 6.2 0 14.413-.601 18.252-.601 3.84-.73 7.343-.288 7.785s4.591 1.699 9.22 2.793c11.203 2.648 22.783 6.507 31.79 10.595 4.056 1.841 7.948 3.347 8.65 3.347 1.714 0 10.59-9.814 13.745-15.198 6.725-11.475 7.529-26.223 2.066-37.899-2.657-5.677-13.453-19.049-15.194-18.818-.353.047-4.242 1.823-8.642 3.948m-56 16.023c-3.3.436-11.4 1.11-18 1.498s-12.562 1.152-13.25 1.698c-.883.701-1.25 4.74-1.25 13.748 0 9.029.365 13.034 1.25 13.709.688.525 5.3 1.051 10.25 1.17 4.95.118 14.106.9 20.347 1.737s11.531 1.34 11.754 1.116c2.267-2.267 2.893-28.674.809-34.105-.677-1.764-2.298-1.842-11.91-.571m-48.265 20.208L102 146.529v14.686c0 16.98 1.028 23.029 5.289 31.111 3.536 6.709 8.802 11.589 16.681 15.458 4.998 2.455 6.587 2.716 16.53 2.716 12.349 0 16.847-1.433 25.42-8.099l4.58-3.56-4.86 4.48c-14.79 13.635-36.29 16.477-54.571 7.214-6.623-3.356-16.075-12.293-19.334-18.28C88.174 185.712 86 176.984 86 169.231c0-3.978-.373-6.118-1-5.731-1.721 1.064-1.122 13.894.964 20.645 4.641 15.017 15.691 26.566 30.617 32.002 8.608 3.135 25.677 3.18 33.359.089 6.773-2.725 7.866-2.259 1.313.56-20.354 8.756-48.679 3.152-65.344-12.928-5.646-5.448-12.457-15.627-14.079-21.041-.631-2.105-1.441-3.827-1.801-3.827s-1.858 1.255-3.328 2.79c-2.523 2.633-2.575 2.88-.937 4.389.955.88 3.311 4.462 5.236 7.961 5.274 9.584 17.002 20.663 27.208 25.702 11.731 5.792 19.711 7.428 33.792 6.928 8.57-.304 13.156-.986 18-2.677 14.79-5.163 27.817-16.273 34.617-29.524 3.299-6.43 4.409-7.736 7.383-8.686 10.588-3.381 32-14.64 32-16.825 0-.845-11.001-6.088-18-8.578-4.608-1.639-27.626-7.48-29.478-7.48-.566 0-2.083 3.037-3.371 6.75-4.205 12.116-12.893 24.224-21.759 30.324-5.937 4.085-5.698 5.346.858 4.533 2.887-.358 7.275-.89 9.75-1.182l4.5-.531-3.836 3.483c-6.771 6.149-11.955 8.031-22.164 8.048-7.064.012-9.968-.436-13.5-2.082-4.109-1.914-13.506-9.17-12.796-9.88.164-.164 2.752.337 5.751 1.115s5.82 1.047 6.269.598.695-10.685.546-22.746l-.27-21.93-9.25.31c-7.495.251-9.25.038-9.25-1.119 0-1.676 4.886-2.664 13.25-2.68L127 146v-12c0-6.6-.119-12-.265-12s-5.771 5.519-12.5 12.264m16.275 16.888c-.317 1.291-.449 11.348-.293 22.348l.283 20 4.015-.069c9.775-.168 24.171-10.885 31.476-23.431 4.796-8.238 7.625-15.784 6.383-17.026-1.255-1.255-13.121-2.714-28.58-3.513l-12.707-.657zM178 192c-.589 1.1-.845 2-.57 2s.981-.9 1.57-2 .845-2 .57-2-.981.9-1.57 2m-4.128 6.75c-1.243 1.586-1.208 1.621.378.378 1.666-1.307 2.195-2.128 1.372-2.128-.207 0-.995.787-1.75 1.75m-5.435 6.5-2.937 3.25 3.25-2.937c3.029-2.738 3.71-3.563 2.937-3.563-.172 0-1.635 1.463-3.25 3.25m-5.565 4.5c-1.243 1.586-1.208 1.621.378.378 1.666-1.307 2.195-2.128 1.372-2.128-.207 0-.995.787-1.75 1.75m-4.431 2.805c-1.864 1.494-1.852 1.512.309.465 1.238-.6 2.25-1.3 2.25-1.555 0-.765-.519-.544-2.559 1.09"/><path fill="#1976D2" fill-opacity=".25" fill-rule="evenodd" d="M42.21 29.849c-.939.596-1.211 3.375-1 10.235l.29 9.416 7.399.575c6.74.523 7.656.862 10.285 3.805 2.809 3.143 2.879 3.49 2.602 12.735L61.5 76.12 54 79.382c-8.441 3.672-21 11.299-21 12.754 0 .526 2.362 2.053 5.25 3.395l5.25 2.438L55.39 86.09l11.89-11.88-.204-9.291c-.217-9.853-.802-11.792-4.885-16.169L59.626 46l4.437.022c2.44.012 6.256.848 8.478 1.858C76.377 49.622 82 55.09 82 57.077c0 .508.45.923 1 .923 2.32 0 .698-3.632-3.356-7.516C74.241 45.306 69.489 44 56.057 44H46v-9h60.626l2.874-3 2.874-3-34.437.015c-18.94.009-35.017.384-35.727.834M91.5 48.821c-1.1.965-2.889 2.863-3.975 4.217s-.073.683 2.25-1.491c3.805-3.56 4.734-4.615 3.975-4.514-.138.019-1.15.823-2.25 1.788m114.935 46.244c-4.891 4.914-8.592 8.935-8.224 8.935 3.186 0 24.076-9.037 25.239-10.919.325-.526-1.369-2.305-3.765-3.954l-4.356-2.997zm-183.577 5.732c-5.727 6.196-10.158 14.202-11.798 21.318-2.43 10.542-2.107 10.406 14.329-6.004l15.389-15.365-5.639-2.86c-3.101-1.574-5.928-2.866-6.281-2.873-.354-.007-3.054 2.596-6 5.784m194.664-1.789c-4.388 2.111-11.48 4.886-15.76 6.165-7.229 2.162-8.323 2.871-15.419 9.997l-7.637 7.67-.461 9.83c-.254 5.406-.525 11.4-.603 13.318l-.142 3.488 10.5 2.65c12.677 3.2 22.61 6.631 31.551 10.898l6.674 3.186 5.187-5.123c14.075-13.9 18.134-31.782 10.779-47.488-3.426-7.317-12.581-18.633-14.977-18.514-.943.047-5.304 1.812-9.692 3.923m-52.398 37.367c-5.135 5.157-8.947 9.616-8.471 9.911s4.524.854 8.996 1.244l8.13.709.589-4.869c1.609-13.325 1.791-16.37.977-16.37-.486 0-5.086 4.219-10.221 9.375m-23.874 23.843L131 170.534v23.557l3.75-.65c14.121-2.446 28.693-15.806 35.174-32.248 3.36-8.524 3.195-8.831-5.174-9.608-3.988-.37-8.6-.9-10.25-1.177-2.723-.459-3.946.447-13.25 9.81m34.06-4.468c-4.787 13.365-9.515 21.412-16.953 28.849-2.937 2.938-6.694 6.041-8.349 6.897-1.654.855-3.008 1.831-3.008 2.167 0 .704 16.288-.481 18.819-1.368 4.246-1.489-6.746 7.848-12.032 10.22-5.287 2.373-6.95 2.637-14.626 2.326-10.177-.413-15.793-2.709-22.13-9.046-2.244-2.243-3.914-4.245-3.711-4.448.202-.203 2.295.311 4.65 1.142s5.35 1.511 6.656 1.511c2.336 0 2.374-.155 2.374-9.73v-9.73l-9.443 9.403c-10.71 10.666-10.629 10.11-2.536 17.386 11.212 10.08 29.547 12.393 43.328 5.464 4.81-2.418 11.965-8.947 14.758-13.467 1.167-1.887 2.338-3.214 2.603-2.949.824.823-5.271 8.963-9.915 13.244-10.198 9.4-19.983 12.794-35.175 12.201-11.248-.44-17.504-2.63-26.612-9.316-2.627-1.928-5.053-3.506-5.392-3.506-3.624 0 8.405 8.828 16.474 12.09 7.625 3.082 24.245 3.821 32.487 1.445 12.026-3.468 22.756-11.84 28.722-22.411 1.697-3.008 3.254-4.965 3.459-4.35.641 1.924-6.175 11.503-11.917 16.745-10.912 9.963-23.677 14.695-39.306 14.57-12.642-.101-23.998-3.381-33.779-9.757-2.662-1.734-2.805-1.727-4.774.242l-2.03 2.03 6.274 3.723c13.785 8.182 33.466 11.542 48.639 8.304 17.303-3.692 34.146-16.452 41.23-31.237l3.405-7.105 10.5-4.115c11.612-4.551 24.5-11.97 24.5-14.103 0-2.122-14.542-7.909-29.341-11.675-15.295-3.893-16.988-4.049-17.849-1.646"/><path fill="#1976D2" fill-opacity=".17" fill-rule="evenodd" d="M220.599 133.46c-11.321 11.525-20.25 21.22-19.842 21.545s3.218 1.427 6.243 2.447 8.602 3.399 12.393 5.286l6.893 3.431 5.799-6.094c10.156-10.673 14.777-23.876 12.765-36.473-.518-3.244-1.554-7.068-2.303-8.498l-1.363-2.599zm-41.068 41.399c-13.174 13.222-16.165 16.707-14.556 16.961 1.114.175 2.025.691 2.025 1.146 0 1.593-7.457 7.354-12.519 9.671-2.811 1.287-6.207 3.533-7.546 4.991l-2.435 2.651 4.333-.665c8.784-1.347 19.806-8.815 23.71-16.064 1.795-3.334 3.457-4.627 3.457-2.69 0 1.232-4.736 8.142-7.852 11.457-3.726 3.965-11.758 9.062-17.648 11.199-5.938 2.155-8.444 4.071-4 3.059 10.681-2.433 22.85-11.481 29.133-21.659 3.865-6.263 6.554-8.161 3.775-2.666-7.288 14.411-23.597 25.965-40.491 28.686-4.672.752-6.992 1.706-8.872 3.646l-2.545 2.628 6-.638c10.257-1.091 15.704-2.618 24.366-6.83 11.141-5.417 20.091-14.178 25.869-25.322 3.84-7.405 4.535-8.184 8.323-9.319 9.3-2.787 30.942-14.033 30.942-16.08 0-.988-13.096-6.588-21.194-9.063l-5.694-1.741zM137.5 217c-.349.565.47 1 1.882 1 1.375 0 2.778-.45 3.118-1 .349-.565-.47-1-1.882-1-1.375 0-2.778.45-3.118 1"/></svg>